<mxfile host="app.diagrams.net" modified="2022-08-31T19:20:21.887Z" agent="5.0 (Windows NT 10.0; Win64; x64) AppleWebKit/537.36 (KHTML, like Gecko) Chrome/104.0.5112.102 Safari/537.36 Edg/104.0.1293.70" etag="CBmkMbgQ7pPWzNCNDNi4" version="20.2.7" type="github">
  <diagram id="_9cusLM6FFAZIeaVTwZ1" name="第 1 页">
    <mxGraphModel dx="782" dy="436" grid="1" gridSize="10" guides="1" tooltips="1" connect="1" arrows="1" fold="1" page="1" pageScale="1" pageWidth="827" pageHeight="1169" math="0" shadow="0">
      <root>
        <mxCell id="0" />
        <mxCell id="1" parent="0" />
        <mxCell id="rv9LeR_7sXlAxLJFzrG7-1" value="" style="swimlane;startSize=0;" vertex="1" parent="1">
          <mxGeometry x="90" y="40" width="910" height="215" as="geometry">
            <mxRectangle x="90" y="40" width="50" height="40" as="alternateBounds" />
          </mxGeometry>
        </mxCell>
        <mxCell id="rv9LeR_7sXlAxLJFzrG7-2" value="&lt;div style=&quot;background-color: rgb(255, 255, 255); font-family: Consolas, &amp;quot;Courier New&amp;quot;, monospace; font-size: 14px; line-height: 19px;&quot;&gt;&lt;div&gt;&lt;span style=&quot;color: rgb(0, 0, 255);&quot;&gt;var&lt;/span&gt; builder = WebAssemblyHostBuilder.CreateDefault(&lt;span style=&quot;color: rgb(0, 0, 255);&quot;&gt;args&lt;/span&gt;);&lt;br&gt;&lt;/div&gt;&lt;div&gt;// if you wish. Or you can even have multiple root&lt;br/&gt;components.&lt;/div&gt;&lt;div&gt;builder.RootComponents.Add&amp;lt;App&amp;gt;(&lt;span style=&quot;color: #a31515;&quot;&gt;&quot;#app&quot;&lt;/span&gt;); //根组件包含 组件类型 和注入的页面&lt;/div&gt;&lt;div&gt;builder.RootComponents.Add&amp;lt;HeadOutlet&amp;gt;(&lt;span style=&quot;color: #a31515;&quot;&gt;&quot;head::after&quot;&lt;/span&gt;);//根组件 包含&amp;lt;header&amp;gt;内的设置&lt;/div&gt;//向IServiceCollection中添加服务&lt;br&gt;&lt;div&gt;builder.Services.AddScoped(sp =&amp;gt; &lt;span style=&quot;color: #0000ff;&quot;&gt;new&lt;/span&gt; HttpClient { BaseAddress = &lt;span style=&quot;color: #0000ff;&quot;&gt;new&lt;/span&gt; Uri(builder.HostEnvironment.BaseAddress) });&lt;/div&gt;&lt;br&gt;&lt;div&gt;&lt;span style=&quot;color: #0000ff;&quot;&gt;var&lt;/span&gt; app = builder.Build();&lt;/div&gt;&lt;div&gt;&lt;span style=&quot;color: #0000ff;&quot;&gt;await&lt;/span&gt; app.RunAsync();&lt;/div&gt;&lt;br&gt;&lt;/div&gt;" style="text;html=1;align=left;verticalAlign=middle;resizable=0;points=[];autosize=1;strokeColor=none;fillColor=none;" vertex="1" parent="rv9LeR_7sXlAxLJFzrG7-1">
          <mxGeometry x="20" y="-5" width="890" height="220" as="geometry" />
        </mxCell>
        <mxCell id="rv9LeR_7sXlAxLJFzrG7-3" value="" style="swimlane;startSize=0;" vertex="1" parent="1">
          <mxGeometry x="40" y="360" width="1110" height="550" as="geometry">
            <mxRectangle x="90" y="360" width="50" height="40" as="alternateBounds" />
          </mxGeometry>
        </mxCell>
        <mxCell id="rv9LeR_7sXlAxLJFzrG7-4" value="&lt;div style=&quot;background-color: rgb(255, 255, 255); line-height: 19px;&quot;&gt;&lt;div style=&quot;line-height: 19px;&quot;&gt;&lt;div style=&quot;font-family: Consolas, &amp;quot;Courier New&amp;quot;, monospace; font-size: 14px; line-height: 19px;&quot;&gt;&lt;div&gt;&lt;span style=&quot;color: #0000ff;&quot;&gt;var&lt;/span&gt; builder = WebApplication.CreateBuilder(args);&lt;/div&gt;&lt;br&gt;&lt;div&gt;&lt;span style=&quot;color: #008000;&quot;&gt;// Add services to the container.&lt;/span&gt;&lt;/div&gt;&lt;div&gt;builder.Services.AddRazorPages();&lt;/div&gt;&lt;div&gt;builder.Services.AddServerSideBlazor();&lt;/div&gt;&lt;div&gt;builder.Services.AddSingleton&amp;lt;WeatherForecastService&amp;gt;();&lt;/div&gt;&lt;br&gt;&lt;div&gt;&lt;span style=&quot;color: #0000ff;&quot;&gt;var&lt;/span&gt; app = builder.Build();&lt;/div&gt;&lt;br&gt;&lt;div&gt;&lt;span style=&quot;color: #008000;&quot;&gt;// Configure the HTTP request pipeline.&lt;/span&gt;&lt;/div&gt;&lt;div&gt;&lt;span style=&quot;color: #0000ff;&quot;&gt;if&lt;/span&gt; (!app.Environment.IsDevelopment())&lt;/div&gt;&lt;div&gt;{&lt;/div&gt;&lt;div&gt;&amp;nbsp; &amp;nbsp; app.UseExceptionHandler(&lt;span style=&quot;color: #a31515;&quot;&gt;&quot;/Error&quot;&lt;/span&gt;);&lt;/div&gt;&lt;div&gt;&amp;nbsp; &amp;nbsp; &lt;span style=&quot;color: #008000;&quot;&gt;// The default HSTS value is 30 days. You may want to change this for production scenarios, see https://aka.ms/aspnetcore-hsts.&lt;/span&gt;&lt;/div&gt;&lt;div&gt;&amp;nbsp; &amp;nbsp; app.UseHsts();&lt;/div&gt;&lt;div&gt;}&lt;/div&gt;&lt;br&gt;&lt;div&gt;app.UseHttpsRedirection();&lt;/div&gt;&lt;br&gt;&lt;div&gt;app.UseStaticFiles();&lt;/div&gt;&lt;br&gt;&lt;div&gt;app.UseRouting();&lt;/div&gt;&lt;br&gt;&lt;div&gt;app.MapBlazorHub();&lt;/div&gt;&lt;div&gt;app.MapFallbackToPage(&lt;span style=&quot;color: #a31515;&quot;&gt;&quot;/_Host&quot;&lt;/span&gt;);&lt;/div&gt;&lt;br&gt;&lt;div&gt;app.Run();&lt;/div&gt;&lt;/div&gt;&lt;/div&gt;&lt;/div&gt;" style="text;html=1;align=left;verticalAlign=middle;resizable=0;points=[];autosize=1;strokeColor=none;fillColor=none;" vertex="1" parent="rv9LeR_7sXlAxLJFzrG7-3">
          <mxGeometry x="40" y="10" width="1030" height="530" as="geometry" />
        </mxCell>
      </root>
    </mxGraphModel>
  </diagram>
</mxfile>
